<svg xmlns="http://www.w3.org/2000/svg" height="20" width="20"><style>path{fill:#000;}@media(prefers-color-scheme:dark){path{fill:#fff;}}</style><path d="M4.5 18q-.625 0-1.062-.438Q3 17.125 3 16.5v-11q0-.625.438-1.062Q3.875 4 4.5 4h4v1.5h-4v11h11v-4.812l1.5 1.5V16.5q0 .625-.438 1.062Q16.125 18 15.5 18Zm1-3 2.25-3 1.5 2 2.25-3 3 4Zm12.438-3-2.563-2.562q-.417.27-.885.416-.469.146-.99.146-1.458 0-2.479-1.021Q10 7.958 10 6.5q0-1.458 1.021-2.479Q12.042 3 13.5 3q1.458 0 2.479 1.021Q17 5.042 17 6.5q0 .521-.146.99-.146.468-.416.885L19 10.938ZM13.5 8.5q.833 0 1.417-.583.583-.584.583-1.417 0-.833-.583-1.417Q14.333 4.5 13.5 4.5q-.833 0-1.417.583-.583.584-.583 1.417 0 .833.583 1.417.584.583 1.417.583Z"/></svg>